<?xml version="1.0" encoding="UTF-8"?>
<svg id="_Слой_2" data-name="Слой_2" xmlns="http://www.w3.org/2000/svg" xmlns:xlink="http://www.w3.org/1999/xlink" viewBox="0 0 464.79 88.56">
  <defs>
    <style>
      .cls-1 {
        fill: none;
      }

      .cls-2 {
        fill: #7d5a45;
      }

      .cls-3 {
        fill: #94a68d;
      }

      .cls-4 {
        clip-path: url(#clippath-1);
      }

      .cls-5 {
        clip-path: url(#clippath-3);
      }

      .cls-6 {
        clip-path: url(#clippath-2);
      }

      .cls-7 {
        clip-path: url(#clippath);
      }
    </style>
    <clipPath id="clippath">
      <path class="cls-1" d="M0,24.74h88.93v4.04H0v-4.04ZM84.94,28.78h3.99v55.78h-3.99V28.78ZM0,28.78h4.04v55.78H0V28.78ZM0,84.56h88.93v3.99H0v-3.99Z"/>
    </clipPath>
    <clipPath id="clippath-1">
      <rect class="cls-1" x="43.33" y=".72" width="34.7" height="26.09"/>
    </clipPath>
    <clipPath id="clippath-2">
      <rect class="cls-1" x="10.9" width="58.52" height="88.51"/>
    </clipPath>
    <clipPath id="clippath-3">
      <rect class="cls-1" x="54.66" y="87.11" width="1.49" height="1.4"/>
    </clipPath>
  </defs>
  <g id="_Слой_1-2" data-name="Слой_1">
    <g class="cls-7">
      <path class="cls-2" d="M0,24.74h88.89v63.81H0V24.74Z"/>
    </g>
    <path class="cls-3" d="M63.38,29.41c3,.01,5.99.02,8.99.04.1,2.21.09,4.67-.09,7.33-.23,3.31-.69,6.29-1.24,8.87-.31-1.06-.67-2.13-1.06-3.2-.18-.48-.62-1.69-1.31-3.26-1.72-3.97-3.45-6.85-4.12-7.95-.48-.77-.89-1.4-1.17-1.82Z"/>
    <g class="cls-4">
      <path class="cls-3" d="M78.03.82c-2.25,5.49-3.62,9.66-3.85,10.96-.12.7-.22,1.45-.22,1.45-.1.73-.19,1.46-.26,2.2h0c-.05.5-.1.99-.13,1.49-.04.5-.08.99-.11,1.49h0c-.03.5-.06,1.01-.08,1.51-.02.26-.03.51-.04.76-.02.51-.04,1.02-.06,1.53-.02.51-.04,1.03-.05,1.54-3.42-.05-6.85-.1-10.27-.15-.41.08-1.44.2-2.53-.31-1.82-.85-2.28-2.75-2.34-3.01h-.01s-.16-.2-.16-.2c2.32-2.63,4.45-4.93,6.05-6.47,2.79-2.68,5.64-5.29,8.55-7.84,1.76-1.56,5.35-4.78,5.51-4.97-.02.02-.07.06-.16.13-1.31,1.06-10.01,8.26-14.32,12.24-2.16,1.98-4.27,4.03-6.33,6.12l-.16-.18-1.21-1.37c-2.56-2.71-5.33-5.1-8.28-7.22-1.64-1.18-3.42-2.3-3.42-2.3-.3-.19-.55-.34-.72-.44L78.03.82Z"/>
    </g>
    <g class="cls-6">
      <path class="cls-3" d="M59.99,74.7l9.23-13.29c-.73,12.99-6.57,22.37-11.08,25.46,0-.02-.02-.04-.02-.05,0-.02-.02-.04-.03-.08-.08-.23-.3-.83-.62-1.73-2.64-7.26-12.35-33.97-15.52-41.07-.74-1.65-1.38-3.08-1.96-4.34-.7-1.52-1.3-2.8-1.85-3.93-1.28-2.62-2.25-4.43-3.43-6.57-2.12-3.83-4.29-7.62-6.61-11.33C24.37,11.8,16.3.33,16.04,0c.12.23,3.07,4.82,4.52,7.05,2.41,3.64,4.73,7.33,6.97,11.08,3.03,5.08,7.99,15.66,11.78,24.25,1.65,3.75,3.09,7.11,4.04,9.49.09.2.16.4.24.59.75,1.9,1.88,5.13,3.15,8.9,3.47,10.36,7.99,24.89,8.54,26.66,0,.02.01.04.01.05-8.08,1.74-33.79-.18-41.9-24.03-.05-.15-.1-.31-.15-.46,7.8,3.88,15.6,7.75,23.4,11.63-8.46-6.85-16.93-13.71-25.39-20.56-.99-8.22.33-15.83,1.97-23.08,6.95,6.93,13.9,13.87,20.85,20.8-6.55-8.66-13.09-17.32-19.64-25.98,2.14-9.04,4.04-17.65,1.61-26.38,14.1,3.48,27.57,9.34,37.6,19.96.41,10.54.81,21.09,1.22,31.63.34-9.7.68-19.4,1.02-29.1,3.2,3.89,7.56,10.2,10.45,18.89,1.97,5.93,2.69,11.25,2.92,15.34-3.09,5.99-6.18,11.99-9.26,17.98Z"/>
    </g>
    <g class="cls-5">
      <path class="cls-3" d="M55.31,88.06h0s-.02,0-.02,0c.01,0,.02,0,.02,0"/>
    </g>
    <path class="cls-2" d="M133.7,32.45v4.34c-.64-.5-1.35-.99-2.15-1.49-.78-.5-1.74-.92-2.89-1.26-1.14-.34-2.58-.51-4.34-.51h-3.52v31.53c0,1,.06,1.83.19,2.5.12.65.29,1.46.49,2.43h-6.21c.22-.96.39-1.77.51-2.43.12-.67.19-1.5.19-2.5v-31.53h-3.55c-1.74,0-3.19.18-4.34.51-1.14.34-2.1.76-2.89,1.26-.78.5-1.49,1-2.15,1.49v-4.34h30.67Z"/>
    <path class="cls-2" d="M152.35,33.53h-9.59v35.38h9.59c1.76,0,3.2-.17,4.34-.51,1.15-.34,2.11-.76,2.89-1.26.79-.5,1.51-.99,2.15-1.49v4.34h-24.51c.22-.96.39-1.77.51-2.43.12-.67.19-1.5.19-2.5v-27.68c0-1.03-.06-1.86-.19-2.5-.13-.65-.3-1.46-.51-2.43h24.51v4.34c-.64-.5-1.35-.99-2.15-1.49-.78-.5-1.74-.92-2.89-1.26-1.14-.34-2.58-.51-4.34-.51ZM149.58,51.55v-.54c1.27,0,2.29-.29,3.03-.86.76-.57,1.62-1.24,2.59-1.98v6.23c-.97-.76-1.83-1.42-2.59-1.98-.75-.57-1.76-.86-3.03-.86Z"/>
    <path class="cls-2" d="M167.63,32.45h19.14c1.73,0,3.43.29,5.11.86,1.68.58,3.19,1.42,4.53,2.52,1.34,1.11,2.4,2.49,3.2,4.13.81,1.63,1.21,3.51,1.21,5.63,0,2.93-.67,5.36-1.98,7.28-1.32,1.93-3.03,3.37-5.13,4.32-2.09.95-4.29,1.44-6.61,1.47-1.3.05-2.73.15-4.32.3-1.59.16-3.14.47-4.64.93-1.49.47-2.77,1.18-3.83,2.12-1.04.95-1.66,2.23-1.84,3.83v4.13h-4.83v-37.53ZM186.76,57.59c1.54,0,3-.43,4.39-1.31,1.4-.87,2.54-2.2,3.43-3.99.9-1.79,1.35-4.02,1.35-6.7s-.48-4.76-1.42-6.54c-.95-1.79-2.14-3.16-3.55-4.11-1.4-.95-2.8-1.42-4.2-1.42h-14.31v29.11c.89-1.43,2.15-2.48,3.78-3.15,1.63-.68,3.39-1.15,5.28-1.4,1.9-.25,3.65-.41,5.25-.49Z"/>
    <path class="cls-2" d="M206.71,32.45h19.14c1.73,0,3.43.29,5.11.86,1.68.58,3.19,1.42,4.53,2.52,1.34,1.11,2.4,2.49,3.2,4.13.81,1.63,1.21,3.51,1.21,5.63,0,2.93-.67,5.36-1.98,7.28-1.32,1.93-3.03,3.37-5.13,4.32-2.09.95-4.29,1.44-6.61,1.47-1.3.05-2.73.15-4.32.3-1.59.16-3.14.47-4.64.93-1.49.47-2.77,1.18-3.83,2.12-1.04.95-1.66,2.23-1.84,3.83v4.13h-4.83v-37.53ZM225.85,57.59c1.54,0,3-.43,4.39-1.31,1.4-.87,2.54-2.2,3.43-3.99.9-1.79,1.35-4.02,1.35-6.7s-.48-4.76-1.42-6.54c-.95-1.79-2.14-3.16-3.55-4.11-1.4-.95-2.8-1.42-4.2-1.42h-14.31v29.11c.89-1.43,2.15-2.48,3.78-3.15,1.63-.68,3.39-1.15,5.28-1.4,1.9-.25,3.65-.41,5.25-.49Z"/>
    <path class="cls-2" d="M276.58,37.38v27.68c0,1,.06,1.83.19,2.5.12.65.29,1.46.51,2.43h-6.23c.22-.96.39-1.77.51-2.43.12-.67.19-1.5.19-2.5v-30.41l-20.42,35.34h-5.53c.22-.96.39-1.77.51-2.43.12-.67.19-1.5.19-2.5v-27.68c0-1.03-.06-1.86-.19-2.5-.13-.65-.3-1.46-.51-2.43h6.23c-.22.97-.39,1.77-.51,2.43-.13.64-.19,1.47-.19,2.5v30.46l20.42-35.38h5.53c-.22.97-.39,1.77-.51,2.43-.13.64-.19,1.47-.19,2.5Z"/>
    <path class="cls-2" d="M311.47,32.45v4.34c-.64-.5-1.35-.99-2.15-1.49-.78-.5-1.74-.92-2.89-1.26-1.14-.34-2.58-.51-4.34-.51h-3.52v31.53c0,1,.06,1.83.19,2.5.12.65.29,1.46.49,2.43h-6.21c.22-.96.39-1.77.51-2.43.12-.67.19-1.5.19-2.5v-31.53h-3.55c-1.74,0-3.19.18-4.34.51-1.14.34-2.1.76-2.89,1.26-.78.5-1.49,1-2.15,1.49v-4.34h30.67Z"/>
    <path class="cls-2" d="M333.39,70.85c-2.46,0-4.77-.51-6.93-1.52-2.16-1.03-4.06-2.44-5.7-4.25-1.62-1.8-2.89-3.9-3.83-6.28s-1.4-4.91-1.4-7.59.47-5.26,1.4-7.61c.93-2.36,2.21-4.43,3.83-6.21,1.63-1.79,3.53-3.19,5.7-4.2,2.16-1.03,4.47-1.54,6.93-1.54s4.71.51,6.86,1.54c2.15,1.02,4.02,2.42,5.63,4.2,1.62,1.77,2.88,3.85,3.78,6.21.92,2.35,1.38,4.89,1.38,7.61s-.46,5.21-1.38,7.59c-.9,2.38-2.16,4.48-3.78,6.28-1.6,1.81-3.48,3.22-5.63,4.25-2.15,1.01-4.43,1.52-6.86,1.52ZM333.39,69.78c1.71,0,3.36-.43,4.95-1.31,1.6-.89,3.03-2.14,4.29-3.76,1.27-1.63,2.28-3.58,3.01-5.84.73-2.27,1.1-4.82,1.1-7.66s-.37-5.36-1.1-7.63c-.74-2.27-1.74-4.21-3.01-5.84-1.26-1.63-2.7-2.88-4.29-3.73-1.59-.85-3.24-1.28-4.95-1.28s-3.38.43-5.02,1.28c-1.62.86-3.08,2.1-4.36,3.73-1.28,1.62-2.3,3.57-3.06,5.84-.75,2.28-1.12,4.82-1.12,7.63s.37,5.39,1.12,7.66c.76,2.26,1.78,4.2,3.06,5.84,1.29,1.62,2.74,2.87,4.36,3.76,1.63.88,3.3,1.31,5.02,1.31Z"/>
    <path class="cls-2" d="M356.92,32.45h19.14c1.73,0,3.43.29,5.11.86,1.68.58,3.19,1.42,4.53,2.52,1.34,1.11,2.4,2.49,3.2,4.13.81,1.63,1.21,3.51,1.21,5.63,0,2.93-.67,5.36-1.98,7.28-1.32,1.93-3.03,3.37-5.13,4.32-2.09.95-4.29,1.44-6.61,1.47-1.3.05-2.73.15-4.32.3-1.59.16-3.14.47-4.64.93-1.49.47-2.77,1.18-3.83,2.12-1.04.95-1.66,2.23-1.84,3.83v4.13h-4.83v-37.53ZM376.06,57.59c1.54,0,3-.43,4.39-1.31,1.4-.87,2.54-2.2,3.43-3.99.9-1.79,1.35-4.02,1.35-6.7s-.48-4.76-1.42-6.54c-.95-1.79-2.14-3.16-3.55-4.11-1.4-.95-2.8-1.42-4.2-1.42h-14.31v29.11c.89-1.43,2.15-2.48,3.78-3.15,1.63-.68,3.39-1.15,5.28-1.4,1.9-.25,3.65-.41,5.25-.49Z"/>
    <path class="cls-2" d="M426.79,37.38v27.68c0,1,.06,1.83.19,2.5.12.65.29,1.46.51,2.43h-6.23c.22-.96.39-1.77.51-2.43.12-.67.19-1.5.19-2.5v-30.41l-20.42,35.34h-5.53c.22-.96.39-1.77.51-2.43.12-.67.19-1.5.19-2.5v-27.68c0-1.03-.06-1.86-.19-2.5-.13-.65-.3-1.46-.51-2.43h6.23c-.22.97-.39,1.77-.51,2.43-.13.64-.19,1.47-.19,2.5v30.46l20.42-35.38h5.53c-.22.97-.39,1.77-.51,2.43-.13.64-.19,1.47-.19,2.5Z"/>
    <path class="cls-2" d="M459.07,64.52c-.22-1.18-.74-2.15-1.54-2.89-.81-.76-1.76-1.32-2.85-1.68-1.09-.36-2.17-.54-3.24-.54-2.18,0-4.24.62-6.16,1.87-1.93,1.23-3.43,2.77-4.5,4.62-.36.76-.6,1.44-.72,2.01-.13.56-.09,1.25.09,2.08h-6.77c.5-.82.88-1.52,1.14-2.08.28-.57.6-1.22.96-1.94h.05c.75-1.73,1.8-3.2,3.17-4.43,1.38-1.23,2.97-2.17,4.76-2.82,1.79-.67,3.65-1,5.58-1,1.43,0,2.86.2,4.29.61,1.43.39,2.78.99,4.06,1.8-1.35-2.29-3.1-3.94-5.25-4.97-2.15-1.04-4.49-1.63-7.03-1.77-2-.11-3.85-.55-5.58-1.33-1.72-.79-3.09-1.94-4.13-3.43-1.03-1.51-1.54-3.39-1.54-5.65s.57-4.21,1.73-5.77c1.17-1.55,2.68-2.73,4.55-3.52,1.88-.81,3.88-1.21,6-1.21h18.65c-.2.97-.37,1.77-.49,2.43-.13.64-.19,1.47-.19,2.5v27.68c0,1,.06,1.83.19,2.5.12.65.29,1.46.49,2.43h-6.21c.17-.85.32-1.58.44-2.17.12-.59.21-1.27.26-2.05-.05-.19-.08-.4-.09-.63-.02-.23-.06-.43-.12-.61ZM459.28,61.47v-27.94h-13.14c-1.21,0-2.39.36-3.52,1.07-1.12.72-2.05,1.77-2.78,3.17-.74,1.39-1.1,3.12-1.1,5.18,0,3.01.65,5.27,1.96,6.79,1.31,1.53,2.88,2.37,4.74,2.54,3.08.25,5.84,1.1,8.29,2.54,2.44,1.45,4.29,3.66,5.56,6.63Z"/>
  </g>
</svg>